<?xml version="1.0" standalone="no"?>
<!DOCTYPE svg PUBLIC "-//W3C//DTD SVG 20010904//EN"
 "http://www.w3.org/TR/2001/REC-SVG-20010904/DTD/svg10.dtd">
<svg version="1.0" xmlns="http://www.w3.org/2000/svg"
 width="500.000000pt" height="500.000000pt" viewBox="0 0 500.000000 500.000000"
 preserveAspectRatio="xMidYMid meet">

<g transform="translate(0.000000,500.000000) scale(0.100000,-0.100000)"
fill="#000000" stroke="none">
<path d="M2305 4930 c-147 -10 -323 -42 -480 -86 -72 -20 -158 -44 -192 -54
-157 -44 -459 -210 -643 -354 -36 -28 -83 -64 -106 -79 -48 -33 -241 -229
-306 -312 -25 -33 -56 -71 -68 -85 -80 -91 -272 -420 -316 -543 -148 -412
-194 -642 -194 -975 0 -300 40 -551 125 -792 94 -267 198 -483 287 -597 20
-27 64 -84 97 -128 118 -158 198 -250 271 -312 156 -132 264 -219 317 -256 72
-51 239 -147 255 -147 7 0 45 -16 83 -36 113 -57 273 -114 322 -114 64 0 100
22 113 69 6 24 9 133 8 278 l-3 238 -25 -3 c-14 -1 -91 -5 -172 -9 -256 -10
-414 35 -533 152 -52 50 -105 137 -105 172 0 23 -73 151 -129 226 -23 31 -65
75 -94 97 -29 22 -68 52 -88 67 -20 16 -44 41 -53 57 -26 45 -9 56 87 56 73 0
87 -4 156 -37 87 -44 157 -110 233 -223 65 -96 117 -160 129 -160 6 0 25 -11
43 -25 46 -35 133 -71 191 -79 92 -13 310 23 356 58 8 6 23 42 32 79 20 82 56
157 104 215 43 52 39 57 -56 67 -167 17 -418 94 -530 162 -264 160 -381 323
-462 641 -69 270 -63 550 14 767 28 78 87 187 121 225 68 75 71 84 53 143 -28
90 -40 187 -34 281 5 106 39 258 67 304 18 29 24 32 67 32 72 -1 123 -15 262
-75 124 -53 215 -100 318 -164 l52 -32 78 20 c338 85 748 85 1086 0 l79 -20
71 44 c77 48 198 111 312 164 80 38 179 63 247 63 60 0 68 -12 103 -145 35
-136 43 -274 20 -385 -33 -160 -34 -155 47 -249 21 -24 38 -48 38 -52 0 -5 18
-46 39 -91 21 -46 49 -123 62 -173 21 -80 23 -112 23 -280 -1 -218 -17 -316
-85 -520 -76 -227 -206 -375 -451 -514 -105 -59 -345 -129 -506 -147 -39 -4
-66 -12 -69 -20 -3 -8 9 -30 26 -49 39 -45 76 -117 98 -192 15 -50 18 -125 23
-516 l5 -459 33 -29 c47 -42 101 -40 238 12 60 22 119 47 132 55 13 8 59 30
104 49 174 73 369 211 594 420 198 183 444 524 538 744 14 34 37 88 51 120 42
98 101 288 129 414 47 207 59 345 53 602 -5 215 -8 242 -41 405 -33 156 -58
240 -166 547 -27 75 -131 261 -218 388 -42 61 -81 115 -87 121 -6 6 -33 40
-60 75 -56 71 -319 339 -334 339 -5 0 -49 30 -98 67 -123 93 -197 138 -363
226 -149 78 -206 100 -416 161 -294 85 -607 118 -909 96z"/>
</g>
</svg>
